<?xml version="1.0" encoding="UTF-8"?>
<svg xmlns="http://www.w3.org/2000/svg" xmlns:xlink="http://www.w3.org/1999/xlink" width="75pt" height="89.999999pt" viewBox="0 0 75 89.999999" version="1.2">
<g id="surface1">
<path style=" stroke:none;fill-rule:nonzero;fill:rgb(0%,0%,0%);fill-opacity:1;" d="M 28.417969 85.046875 C 25.335938 85.046875 22.402344 84.832031 19.796875 84.441406 C 15.359375 83.769531 9.925781 82.28125 9.203125 78.976562 C 8.941406 77.769531 9.222656 75.9375 12.058594 74.078125 C 16.984375 70.863281 22.796875 71.347656 27.929688 71.773438 C 29.402344 71.894531 30.785156 72.011719 32.152344 72.054688 C 33.421875 72.085938 34.28125 71.902344 34.699219 71.492188 C 35.300781 70.914062 35.378906 69.449219 35.378906 67.957031 C 35.378906 67.046875 36.117188 66.308594 37.03125 66.308594 C 37.941406 66.308594 38.679688 67.046875 38.679688 67.957031 C 38.679688 70.117188 38.550781 72.351562 37 73.859375 C 35.902344 74.925781 34.289062 75.414062 32.054688 75.351562 C 30.601562 75.308594 29.105469 75.183594 27.65625 75.0625 C 22.605469 74.640625 17.835938 74.242188 13.867188 76.84375 C 12.601562 77.671875 12.414062 78.203125 12.429688 78.273438 C 12.550781 78.832031 14.695312 80.332031 20.289062 81.179688 C 32.304688 82.988281 52.894531 80.699219 58.921875 70.027344 C 59.371094 69.234375 60.375 68.957031 61.167969 69.40625 C 61.964844 69.851562 62.246094 70.859375 61.796875 71.652344 C 56.277344 81.425781 41.082031 85.046875 28.417969 85.046875 "/>
<path style=" stroke:none;fill-rule:nonzero;fill:rgb(0%,0%,0%);fill-opacity:1;" d="M 45.773438 6.414062 C 46.429688 7.289062 46.261719 8.535156 45.386719 9.195312 L 42.351562 11.492188 C 41.476562 12.152344 40.234375 11.980469 39.570312 11.105469 L 38.875 10.183594 C 38.210938 9.308594 38.386719 8.0625 39.257812 7.402344 L 42.292969 5.105469 C 43.167969 4.445312 44.414062 4.617188 45.070312 5.492188 L 45.773438 6.414062 "/>
<path style=" stroke:none;fill-rule:nonzero;fill:rgb(0%,0%,0%);fill-opacity:1;" d="M 29.078125 6.648438 C 28.496094 7.414062 28.648438 8.503906 29.414062 9.085938 L 32.074219 11.097656 C 32.839844 11.675781 33.929688 11.523438 34.511719 10.757812 L 35.121094 9.949219 C 35.703125 9.183594 35.550781 8.09375 34.785156 7.511719 L 32.125 5.5 C 31.359375 4.921875 30.269531 5.074219 29.6875 5.839844 L 29.078125 6.648438 "/>
<path style=" stroke:none;fill-rule:nonzero;fill:rgb(0%,0%,0%);fill-opacity:1;" d="M 41.914062 48.042969 C 41.410156 48.042969 40.910156 47.808594 40.585938 47.371094 C 40.046875 46.640625 40.199219 45.605469 40.933594 45.0625 C 42.105469 44.199219 43.308594 43.425781 44.335938 42.789062 C 44.988281 42.378906 45.644531 41.976562 46.296875 41.574219 C 48.011719 40.527344 49.785156 39.441406 51.433594 38.277344 C 54.09375 36.398438 56.015625 34.625 57.484375 32.695312 C 59.21875 30.410156 60.359375 27.707031 60.78125 24.875 C 61.132812 22.539062 61.433594 18.078125 59.507812 14.398438 C 57.90625 11.335938 55.03125 8.886719 51.8125 7.847656 C 48.589844 6.808594 45.34375 7.425781 43.125 9.503906 C 42.460938 10.128906 41.417969 10.09375 40.796875 9.429688 C 40.171875 8.765625 40.203125 7.71875 40.867188 7.097656 C 43.976562 4.1875 48.445312 3.292969 52.824219 4.707031 C 56.910156 6.027344 60.410156 9 62.429688 12.867188 C 64.179688 16.210938 64.753906 20.648438 64.046875 25.363281 C 63.539062 28.742188 62.179688 31.96875 60.109375 34.6875 C 58.429688 36.898438 56.28125 38.894531 53.335938 40.972656 C 51.601562 42.199219 49.78125 43.3125 48.023438 44.390625 C 47.375 44.789062 46.730469 45.183594 46.082031 45.585938 C 45.113281 46.191406 43.972656 46.917969 42.894531 47.71875 C 42.597656 47.9375 42.253906 48.042969 41.914062 48.042969 "/>
<path style=" stroke:none;fill-rule:nonzero;fill:rgb(0%,0%,0%);fill-opacity:1;" d="M 32.148438 48.042969 C 31.808594 48.042969 31.464844 47.9375 31.171875 47.71875 C 30.085938 46.917969 28.949219 46.191406 27.976562 45.585938 C 27.332031 45.183594 26.6875 44.785156 26.039062 44.390625 C 24.277344 43.3125 22.460938 42.199219 20.722656 40.972656 C 17.78125 38.894531 15.628906 36.898438 13.953125 34.6875 C 11.882812 31.96875 10.519531 28.742188 10.011719 25.363281 C 9.308594 20.648438 9.882812 16.210938 11.628906 12.867188 C 13.652344 9 17.152344 6.027344 21.234375 4.707031 C 25.617188 3.292969 30.085938 4.1875 33.1875 7.097656 C 33.855469 7.71875 33.890625 8.765625 33.265625 9.429688 C 32.644531 10.09375 31.597656 10.128906 30.933594 9.503906 C 28.71875 7.425781 25.472656 6.808594 22.253906 7.847656 C 19.03125 8.886719 16.152344 11.335938 14.554688 14.398438 C 12.628906 18.082031 12.925781 22.539062 13.277344 24.875 C 13.703125 27.707031 14.84375 30.410156 16.578125 32.695312 C 18.042969 34.625 19.96875 36.398438 22.628906 38.277344 C 24.277344 39.441406 26.046875 40.527344 27.761719 41.574219 C 28.417969 41.976562 29.070312 42.378906 29.726562 42.789062 C 30.75 43.425781 31.957031 44.199219 33.128906 45.0625 C 33.859375 45.605469 34.019531 46.640625 33.476562 47.371094 C 33.152344 47.808594 32.652344 48.042969 32.148438 48.042969 "/>
<path style=" stroke:none;fill-rule:nonzero;fill:rgb(0%,0%,0%);fill-opacity:1;" d="M 61.015625 65.320312 C 58.167969 65.320312 55.847656 67.636719 55.847656 70.488281 C 55.847656 73.339844 58.167969 75.660156 61.015625 75.660156 C 63.871094 75.660156 66.1875 73.339844 66.1875 70.488281 C 66.1875 67.636719 63.871094 65.320312 61.015625 65.320312 Z M 61.015625 78.957031 C 56.347656 78.957031 52.546875 75.160156 52.546875 70.488281 C 52.546875 65.820312 56.347656 62.019531 61.015625 62.019531 C 65.6875 62.019531 69.488281 65.820312 69.488281 70.488281 C 69.488281 75.160156 65.6875 78.957031 61.015625 78.957031 "/>
<path style=" stroke:none;fill-rule:nonzero;fill:rgb(0%,0%,0%);fill-opacity:1;" d="M 64.765625 70.488281 C 64.765625 68.417969 63.089844 66.738281 61.015625 66.738281 C 58.945312 66.738281 57.265625 68.417969 57.265625 70.488281 C 57.265625 72.558594 58.945312 74.238281 61.015625 74.238281 C 63.089844 74.238281 64.765625 72.558594 64.765625 70.488281 "/>
<path style=" stroke:none;fill-rule:nonzero;fill:rgb(100%,0%,1.959229%);fill-opacity:1;" d="M 23.75 48.332031 C 23.59375 48.332031 23.46875 48.457031 23.46875 48.613281 L 23.46875 54.730469 C 23.46875 54.886719 23.59375 55.015625 23.75 55.015625 L 32.246094 55.015625 C 33.042969 55.015625 33.6875 55.660156 33.6875 56.457031 L 33.6875 64.953125 C 33.6875 65.109375 33.816406 65.234375 33.972656 65.234375 L 40.089844 65.234375 C 40.246094 65.234375 40.375 65.109375 40.375 64.953125 L 40.375 56.457031 C 40.375 55.660156 41.019531 55.015625 41.816406 55.015625 L 50.308594 55.015625 C 50.46875 55.015625 50.597656 54.886719 50.597656 54.730469 L 50.597656 48.613281 C 50.597656 48.457031 50.46875 48.332031 50.308594 48.332031 L 41.816406 48.332031 C 41.019531 48.332031 40.375 47.683594 40.375 46.886719 L 40.375 38.390625 C 40.375 38.234375 40.246094 38.105469 40.089844 38.105469 L 33.972656 38.105469 C 33.816406 38.105469 33.6875 38.234375 33.6875 38.390625 L 33.6875 46.886719 C 33.6875 47.683594 33.042969 48.332031 32.246094 48.332031 Z M 40.089844 68.121094 L 33.972656 68.121094 C 32.226562 68.121094 30.804688 66.699219 30.804688 64.953125 L 30.804688 57.902344 L 23.75 57.902344 C 22.003906 57.902344 20.582031 56.476562 20.582031 54.730469 L 20.582031 48.613281 C 20.582031 46.867188 22.003906 45.445312 23.75 45.445312 L 30.804688 45.445312 L 30.804688 38.390625 C 30.804688 36.644531 32.226562 35.222656 33.972656 35.222656 L 40.089844 35.222656 C 41.839844 35.222656 43.257812 36.644531 43.257812 38.390625 L 43.257812 45.445312 L 50.308594 45.445312 C 52.058594 45.445312 53.480469 46.867188 53.480469 48.613281 L 53.480469 54.730469 C 53.480469 56.476562 52.058594 57.902344 50.308594 57.902344 L 43.257812 57.902344 L 43.257812 64.953125 C 43.257812 66.699219 41.839844 68.121094 40.089844 68.121094 "/>
</g>
</svg>
